<svg xmlns="http://www.w3.org/2000/svg" width="189" height="59" fill="none"><path fill="#0074FF" d="M85.325 9.363H76.18v22.026h-4.275V9.363h-9.15v-3.39h22.571v3.39ZM92.883 9.363v7.63H107.4v3.382H92.883v5.828c0 .497.198.973.551 1.324.353.351.831.548 1.33.548h14.516v3.307H93.639a5.052 5.052 0 0 1-3.56-1.467 5.01 5.01 0 0 1-1.474-3.543v-20.4h20.69v3.39H92.883ZM137.441 5.972V31.39h-4.275V11.521l-5.93 7.66-2.145 2.77-2.147-2.77-5.932-7.66V31.39h-4.275V5.972h4.275l8.076 10.432 8.073-10.432h4.28ZM163.508 10.992v2.893a6.24 6.24 0 0 1-1.242 3.743 6.293 6.293 0 0 1-3.243 2.264l-13.801 4.107v7.39h-4.274V5.972h17.528a5.053 5.053 0 0 1 3.562 1.472 4.981 4.981 0 0 1 1.47 3.548Zm-4.274.25c0-.497-.199-.973-.551-1.324a1.885 1.885 0 0 0-1.33-.548h-12.134v11.106l11.768-3.503a3.147 3.147 0 0 0 1.621-1.13c.404-.541.622-1.197.622-1.87l.004-2.731ZM171.465 5.972h12.501c1.335 0 2.616.53 3.56 1.47A5 5 0 0 1 189 10.984v15.387a4.991 4.991 0 0 1-1.474 3.543 5.027 5.027 0 0 1-3.56 1.467h-12.501a5.054 5.054 0 0 1-3.56-1.467 5.004 5.004 0 0 1-1.474-3.543v-15.38a4.982 4.982 0 0 1 1.472-3.548 5.053 5.053 0 0 1 3.562-1.471Zm13.255 20.224V11.25c0-.497-.198-.973-.551-1.324a1.885 1.885 0 0 0-1.33-.548h-10.242c-.499 0-.978.197-1.33.548a1.867 1.867 0 0 0-.551 1.324v14.96c0 .497.198.974.551 1.325.352.35.831.548 1.33.548h10.235a1.89 1.89 0 0 0 1.337-.548 1.855 1.855 0 0 0 .551-1.33v-.008ZM114.464 41.093v4.605a2.444 2.444 0 0 1-2.46 2.464h-6.094a2.444 2.444 0 0 1-2.459-2.463v-7.552a2.459 2.459 0 0 1 2.459-2.482h8.251v1.678h-7.699a.917.917 0 0 0-.926.91v7.338c0 .5.41.91.926.91h4.99c.517 0 .927-.41.927-.91v-2.838h-4.348v-1.66h6.433ZM126.363 37.343h-8.019v3.75h7.093v1.66h-7.093v2.838c0 .5.41.91.927.91h7.092v1.661h-7.645a2.444 2.444 0 0 1-2.459-2.463V35.665h10.104v1.678ZM139.158 39.557c0 1.375-.891 2.57-2.192 2.964l-.196.053 2.388 5.588h-2.085l-2.156-5.034-4.687 1.41v3.624h-2.085V35.665h8.554a2.459 2.459 0 0 1 2.459 2.482v1.41Zm-8.928-2.214v5.463l5.738-1.731a1.53 1.53 0 0 0 1.105-1.482v-1.34c0-.499-.41-.91-.927-.91h-5.916ZM151.792 38.147V48.18h-2.085v-3.66h-6.843v3.642h-2.085V38.147a2.46 2.46 0 0 1 2.46-2.482h6.094a2.459 2.459 0 0 1 2.459 2.482Zm-8.928.107v4.606h6.843v-4.606c0-.5-.409-.91-.926-.91h-4.99a.918.918 0 0 0-.927.91ZM156.599 37.343a.917.917 0 0 0-.926.91v7.338c0 .5.41.91.926.91h7.093v1.661h-4.651l-.161.928h1.907c.339 0 .535.233.481.554l-.32 2.017c-.072.375-.339.607-.678.607h-3.065l.232-1.196h2.281c.053 0 .071-.018.089-.071l.125-.679c0-.035-.018-.089-.054-.089h-2.334l.338-2.07h-1.835a2.444 2.444 0 0 1-2.459-2.464v-7.552a2.444 2.444 0 0 1 2.459-2.464h7.645v1.66h-7.093ZM169.688 33.63c-.41 0-.588.34-.588.768h-1.408c0-1.464.731-2.214 1.818-2.214 1.087 0 1.479.821 2.049.821.392 0 .606-.375.606-.803h1.408c0 1.482-.731 2.214-1.8 2.214s-1.515-.786-2.085-.786Zm3.992 2.053a2.444 2.444 0 0 1 2.459 2.464V48.18h-2.085v-3.66h-6.843v3.642h-2.085V38.147a2.444 2.444 0 0 1 2.459-2.464h6.095Zm.374 7.177v-4.606c0-.5-.41-.91-.927-.91h-4.99a.917.917 0 0 0-.926.91v4.606h6.843ZM177.934 38.147a2.459 2.459 0 0 1 2.459-2.482h6.095a2.459 2.459 0 0 1 2.459 2.482v7.552a2.444 2.444 0 0 1-2.459 2.463h-6.095a2.444 2.444 0 0 1-2.459-2.463v-7.552Zm8.001 8.355c.517 0 .927-.41.927-.91v-7.338c0-.5-.41-.91-.927-.91h-4.989a.918.918 0 0 0-.927.91v7.337c0 .5.41.91.927.91h4.989ZM24.882 52.558c-1.758-.123-3.008.742-2.827 1.857.193.99 1.648 1.858 3.24 2.005 1.614.1 2.92-.579 2.885-1.59-.022-1.137-1.517-2.187-3.298-2.272ZM18.36 46.224c-.171-1.691-1.751-3.25-3.497-3.422-1.684-.201-2.8.989-2.54 2.605.274 1.532 1.757 2.95 3.347 3.234 1.638.242 2.868-.813 2.69-2.416ZM35.753 50.971c.123-1.596 1.91-2.454 2.083-4.513.125-1.716-1.332-3.09-3.276-3.013-1.974.053-3.603 1.547-3.624 3.29-.027 2.092 1.727 2.797 1.657 4.409-.051 1.477-1.763 2.129-1.817 3.613v.073c-.035 1.011 1.27 1.69 2.884 1.59 1.592-.147 3.047-1.021 3.25-2.005a.073.073 0 0 0 0-.072c.242-1.455-1.306-1.903-1.157-3.372ZM12.293 52.114c-.57-1.31-1.963-2.273-2.437-3.566-.42-1.396.643-1.714.228-3.593-.296-1.573-1.647-3.113-2.969-3.404-1.197-.291-1.831.67-1.462 2.11.522 1.716 1.734 2.773 2.223 4.116.528 1.234-.144 1.222.583 2.41 0 0 .016.029.036.054.588.778 1.79 1.847 2.736 2.444 1.058.574 1.558.37 1.101-.502-.029-.034-.046-.06-.04-.07ZM12.656 53.96l.008.005-.003-.003-.005-.002ZM21.262 57.797l-.027-.02c-.378-.457-1.825-1.003-2.205-1.643-.362-.799.913-.91.572-2.13-.248-1.097-1.762-2.28-3.328-2.561-1.513-.324-2.404.296-2 1.338.528 1.143 1.97 1.92 2.43 2.697.46.611-.476.377.15.787v.012a30.066 30.066 0 0 0 4.274 1.6c.228.044.265.018.134-.08ZM25.834 57.95c-1.498-.249-2.854-.116-2.982.224-.07.206.944.465 2.25.656h.009c.588.072 1.175.13 1.76.17.535 0 .936-.056 1.08-.13.311-.284-.634-.73-2.117-.92ZM2.594 34.225c-.157-1.702-.973-3.175-1.744-3.258-.643-.107-.96 1.043-.783 2.553.227 1.469.855 2.894 1.47 3.174.751.278 1.252-.834 1.057-2.47ZM2.44 39.625c-.586-.38-.636.317-.17 1.548.512 1.147 1.278 2.47 1.807 3.019.67.557.892-.04.458-1.334-.402-1.388-1.378-2.86-2.095-3.233ZM.831 27.984c.773-.086 1.587-1.553 1.744-3.258.195-1.636-.306-2.747-1.055-2.463-.615.282-1.244 1.702-1.472 3.174-.176 1.503.14 2.647.783 2.547ZM2.44 19.215c.717-.37 1.693-1.846 2.097-3.234.434-1.294.212-1.891-.458-1.335-.529.55-1.302 1.872-1.808 3.018-.467 1.229-.417 1.932.17 1.55ZM15.005 16.149c1.747-.17 3.336-1.731 3.497-3.423.18-1.605-1.05-2.658-2.688-2.418-1.59.284-3.078 1.712-3.348 3.233-.267 1.617.85 2.807 2.539 2.608ZM28.09 47.023c-.011-2.422-1.935-3.379-1.962-5.561-.022-2.237 1.913-3.214 1.91-5.898v-.144c0-2.13-1.688-3.866-3.752-3.866-2.038 0-3.662 1.702-3.645 3.8v.15c.044 2.65 1.95 3.674 2.002 5.898.063 2.167-1.75 3.013-1.626 5.401.106 1.79 1.725 3.282 3.616 3.372 1.93.054 3.487-1.326 3.458-3.152ZM24.303 27.018a3.844 3.844 0 0 0 2.665-1.143 3.808 3.808 0 0 0 1.097-2.672 3.545 3.545 0 0 0-1.044-2.575 3.579 3.579 0 0 0-2.584-1.046 3.883 3.883 0 0 0-2.594 1.142 3.848 3.848 0 0 0-1.118 2.594c-.047 2.053 1.55 3.714 3.578 3.7ZM34.946 31.554c-2.064 0-3.748 1.736-3.752 3.866-.003 2.129 1.659 3.788 3.699 3.763 2.04-.026 3.663-1.743 3.699-3.83.035-2.086-1.608-3.799-3.646-3.799ZM9.236 34.477c-.045-1.935-1.262-3.518-2.656-3.508-1.284-.016-2.222 1.447-2.164 3.252.099 1.769 1.154 3.308 2.424 3.473 1.373.13 2.478-1.287 2.396-3.217ZM31.078 12.216c0 .039.012.078 0 .117.026 2.243 1.91 3.144 1.957 5.203.035 2.134-1.881 3.064-1.863 5.668 0 .998.393 1.956 1.094 2.67a3.842 3.842 0 0 0 2.658 1.146 3.589 3.589 0 0 0 2.586-1.09 3.558 3.558 0 0 0 .998-2.612c-.086-2.568-1.977-3.574-2.052-5.692-.077-2.042 1.684-2.806 1.529-5.016 0-.039-.01-.078-.014-.119-.133-1.625-1.727-2.992-3.553-3.096-1.866-.073-3.362 1.166-3.34 2.82ZM14.663 20.062c-1.722.146-3.182 1.786-3.31 3.694v.129c-.115 2.471 1.456 3.358 1.412 5.562-.014 2.213-1.618 3.15-1.572 5.694.067 1.955 1.51 3.634 3.25 3.717 1.82.092 3.292-1.491 3.248-3.544-.03-2.646-1.823-3.642-1.812-5.9.037-2.256 1.838-3.269 1.913-5.86a.737.737 0 0 0 0-.135c.075-1.999-1.339-3.493-3.13-3.357ZM25.436 2.53c-1.592.147-3.047 1.02-3.25 2.006a.074.074 0 0 0 0 .071c-.239 1.456 1.309 1.902 1.158 3.372-.123 1.595-1.908 2.455-2.08 4.512-.125 1.718 1.331 3.091 3.276 3.015 1.973-.053 3.602-1.547 3.623-3.29.027-2.094-1.727-2.797-1.657-4.409.051-1.477 1.761-2.13 1.816-3.613V4.12c.02-1.013-1.276-1.69-2.886-1.592ZM5.647 20.095c-.342 1.686-1.151 2.146-1.47 4.282a.744.744 0 0 0 0 .17c-.109 1.72.75 3.05 2.007 2.975 1.388-.076 2.659-1.702 2.771-3.601a4.161 4.161 0 0 0 0-.732c-.058-1.947-1.313-2.783-1.077-4.39.198-.958.795-1.841 1.346-2.744a4.725 4.725 0 0 0 .993-2.059c.416-1.872-.648-2.199-.227-3.593.472-1.294 1.865-2.257 2.437-3.566 0-.008.01-.036.029-.063.456-.871-.045-1.077-1.102-.502-.942.598-2.146 1.666-2.735 2.444-.02.026-.038.05-.035.053-.728 1.191-.054 1.174-.583 2.41-.482 1.343-1.694 2.4-2.223 4.116l-.01.05c-.544 1.514.279 3.228-.121 4.75ZM26.217.075h-.01c-.588.068-1.172.152-1.75.252-.513.126-.9.274-1.026.378-.239.348.784.56 2.266.4 1.513-.11 2.804-.557 2.852-.92.026-.216-1.019-.23-2.332-.11ZM16.41 7.52c1.567-.281 3.078-1.464 3.328-2.554.342-1.22-.933-1.33-.57-2.129.377-.64 1.825-1.191 2.203-1.644.03-.012.027-.015.027-.019.132-.099.095-.124-.116-.075a29.86 29.86 0 0 0-4.275 1.6v.012c-.625.41.31.17-.15.787-.484.757-1.919 1.54-2.447 2.684-.403 1.041.487 1.66 2 1.337ZM44.096 42.802c-1.746.17-3.335 1.73-3.497 3.422-.171 1.606 1.052 2.66 2.69 2.417 1.59-.284 3.078-1.702 3.348-3.233.26-1.617-.854-2.807-2.541-2.606ZM56.828 39.796c-.716.369-1.693 1.846-2.096 3.234-.436 1.295-.212 1.89.458 1.336.528-.55 1.301-1.873 1.807-3.02.465-1.232.414-1.93-.169-1.55ZM33.544 57.894c-1.513.109-2.804.556-2.852.917-.024.216 1.026.231 2.336.112h.01c.586-.065 1.168-.149 1.747-.25.522-.128.902-.274 1.026-.38.238-.348-.783-.56-2.267-.4ZM42.685 51.504c-1.566.281-3.078 1.464-3.327 2.553-.342 1.22.933 1.331.57 2.13-.379.64-1.825 1.191-2.203 1.644-.03.012-.028.015-.028.018-.132.1-.094.125.116.075a29.858 29.858 0 0 0 4.275-1.6v-.011c.626-.41-.31-.17.15-.787.46-.78 1.902-1.554 2.43-2.698.42-1.028-.47-1.647-1.983-1.324ZM55.264 35.175a.32.32 0 0 0 0-.04.923.923 0 0 0 .01-.17v-.105c.062-1.852-.88-3.351-2.165-3.334-1.317-.01-2.476 1.441-2.637 3.276-.28 2.499 1.167 4.085.83 5.843-.202.807-.696 1.403-1.21 2a5.182 5.182 0 0 0-.996 1.294 3.733 3.733 0 0 0-.37.81l.016.008a4.176 4.176 0 0 0-.137.531c-.415 1.927.647 2.254.228 3.684-.474 1.326-1.868 2.314-2.437 3.656 0 .01-.012.037-.03.064-.457.894.044 1.105 1.102.511.94-.613 2.144-1.702 2.736-2.507.019-.026.038-.051.034-.055.727-1.217.055-1.203.583-2.47.48-1.376 1.695-2.46 2.223-4.22.049-.19.08-.383.096-.577.282-1.473.123-2.853.456-3.939.254-1.037.659-1.603 1.026-2.373.343-.578.562-1.22.642-1.887ZM30.916 4.12c.022 1.138 1.516 2.188 3.298 2.271 1.758.124 3.006-.74 2.825-1.855-.192-.99-1.647-1.859-3.239-2.007-1.614-.099-2.918.579-2.884 1.592ZM40.736 12.726c.019.173.052.343.097.51.342 2.145 1.842 3.002 1.994 4.996.086 1.331-.513 2.213-.947 3.29a3.513 3.513 0 0 0-.433 1.886.153.153 0 0 0 0 .068c0 .114.014.222.022.33.21 2.346 1.856 3.38 1.881 5.524.01 2.258-1.78 3.25-1.805 5.892v.08c-.043 2.053 1.43 3.636 3.248 3.544 1.743-.083 3.186-1.762 3.25-3.717v-.077c.042-2.524-1.563-3.477-1.577-5.686-.043-2.19 1.527-3.081 1.41-5.556v-.065a4.186 4.186 0 0 0-.117-.733c-.385-1.893-1.743-3.108-1.863-4.936-.11-1.362.563-2.237.789-3.345a2.57 2.57 0 0 0 .075-1.191 3.294 3.294 0 0 0-.215-.703c0-.015 0-.03-.014-.046-.534-1.217-1.773-2.238-3.105-2.483-1.639-.24-2.868.813-2.69 2.418ZM46.738 6.638c.581 1.333 2.002 2.316 2.484 3.636.43 1.42-.654 1.746-.23 3.662.3 1.604 1.679 3.175 3.026 3.476 1.226.296 1.867-.68 1.49-2.151-.532-1.759-1.769-2.836-2.253-4.198-.538-1.258.148-1.246-.595-2.456 0 0-.015-.029-.035-.054-.599-.793-1.827-1.883-2.786-2.492-1.079-.586-1.59-.376-1.123.51.012.021.029.048.022.067ZM37.834 1.09l.026.021c.38.458 1.826 1.004 2.206 1.643.362.8-.914.91-.573 2.13.25 1.099 1.763 2.281 3.329 2.554 1.513.325 2.394-.295 2-1.336-.528-1.144-1.97-1.92-2.431-2.698-.46-.611.477-.376-.149-.786a.04.04 0 0 1 0-.012 30.075 30.075 0 0 0-4.274-1.602c-.221-.036-.266-.012-.134.087ZM35.55.705C35.425.6 35.045.453 34.524.327a24.908 24.908 0 0 0-1.748-.252h-.01c-1.315-.12-2.36-.106-2.336.11.048.363 1.34.81 2.852.92 1.485.16 2.505-.052 2.268-.4ZM58.35 31.034c-.728 0-1.426 1.307-1.484 2.914-.103 1.613.45 2.767 1.168 2.585.59-.17 1.111-1.47 1.23-2.907.067-1.437-.314-2.616-.914-2.592ZM56.68 24.726c.157 1.702.97 3.172 1.744 3.257.643.108.959-1.043.783-2.553-.228-1.469-.855-2.893-1.473-3.174-.748-.277-1.25.834-1.055 2.47ZM56.965 19.153c.587.382.634-.316.171-1.549-.513-1.145-1.28-2.468-1.807-3.017-.67-.557-.895.04-.459 1.334.4 1.387 1.377 2.863 2.095 3.232ZM50.39 23.468c.236 1.717 1.567 3.307 2.907 3.518 1.247.243 1.96-.885 1.664-2.463-.342-1.513-1.505-2.997-2.691-3.378-1.274-.343-2.15.672-1.88 2.323Z"/></svg>